 <svg  version="1.0" xmlns="http://www.w3.org/2000/svg"  width="300.000000pt" height="300.000000pt" viewBox="0 0 300.000000 300.000000"  preserveAspectRatio="xMidYMid meet">
 <g class="text" transform="translate(0.000000,300.000000) scale(0.100000,-0.100000)" fill="#ffffff" stroke="none">
 <path class="cls-2" d="M753 1823 c106 -4 107 -4 107 -28 0 -24 -2 -24 -100 -28 l-100 -3 102 0 103 1 0 30 0 30 -110 1 -110 0 108 -3z"/> <path d="M910 1795 l0 -35 50 0 50 0 0 -70 0 -70 -50 0 c-49 0 -50 -1 -50 -30 l0 -30 133 2 132 2 -127 3 c-120 3 -128 5 -128 23 0 17 7 20 50 20 l50 0 0 80 0 80 -50 0 c-47 0 -50 2 -50 25 l0 24 128 4 127 3 -132 2 -133 2 0 -35z"/>
 <path class="cls-2" d="M1234 1805 c-24 -24 -25 -29 -22 -132 l3 -108 30 0 30 0 3 97 c3 91 4 97 25 101 18 4 18 4 -5 6 l-28 1 0 -100 c0 -100 0 -100 -25 -100 l-25 0 0 103 c0 138 2 140 122 148 l93 5 -88 2 c-82 2 -90 0 -113 -23z"/>
 <path class="cls-2" d="M1527 1823 c-4 -3 -7 -64 -7 -135 l0 -128 30 0 c29 0 30 1 30 50 l0 50 84 0 c79 0 86 2 105 26 27 34 27 85 0 115 l-21 24 16 -25 c20 -31 20 -79 0 -108 -14 -20 -23 -22 -105 -22 l-89 0 0 -50 c0 -43 -3 -50 -20 -50 -19 0 -20 7 -20 125 l0 124 108 4 107 3 -106 2 c-58 1 -109 -1 -112 -5z"/>
 <path class="cls-2" d="M1824 1816 c-3 -8 -4 -63 -2 -121 4 -134 5 -135 138 -135 130 0 130 0 130 154 l0 117 -27 -3 -28 -3 -3 -102 -3 -103 -69 0 -69 0 -3 103 -3 102 -28 3 c-17 2 -29 -2 -33 -12z m56 -101 l0 -106 78 3 77 3 3 103 c2 94 4 102 22 102 19 0 20 -7 20 -113 0 -75 -4 -117 -12 -125 -8 -8 -47 -12 -109 -12 -126 0 -129 3 -129 147 l0 103 25 0 25 0 0 -105z"/>
 <path class="cls-2" d="M2283 1823 c106 -4 107 -4 107 -28 0 -25 0 -25 -106 -25 l-105 0 3 -27 c3 -28 3 -28 92 -31 51 -2 97 -8 105 -15 14 -11 14 -10 2 6 -11 14 -30 17 -102 17 -82 0 -89 2 -89 20 0 18 8 20 103 22 l102 3 0 30 0 30 -110 1 -110 0 108 -3z"/>
 <path class="cls-2" d="M2146 1804 c-24 -23 -21 -99 4 -124 17 -17 32 -20 108 -18 l87 2 -93 5 c-67 4 -95 10 -102 21 -16 24 -12 92 7 112 20 22 11 24 -11 2z"/>
 <path class="cls-2" d="M1470 1680 c0 -103 -1 -110 -20 -110 -19 0 -20 7 -20 100 l0 100 -30 0 -30 0 0 -99 0 -100 -27 -4 c-26 -4 -26 -4 5 -6 l32 -1 0 100 c0 93 1 100 20 100 19 0 20 -7 20 -100 l0 -100 30 0 30 0 0 115 c0 63 -2 115 -5 115 -3 0 -5 -49 -5 -110z"/>
 <path class="cls-2" d="M1062 1693 l3 -78 50 -1 50 -1 -47 4 -48 4 0 69 0 69 53 4 52 3 -58 2 -58 2 3 -77z"/>
 <path class="cls-2" d="M1572 1743 c3 -28 4 -28 81 -31 l77 -3 0 31 0 30 -81 0 -80 0 3 -27z m148 -3 c0 -18 -7 -20 -70 -20 -63 0 -70 2 -70 20 0 18 7 20 70 20 63 0 70 -2 70 -20z"/>
 <path class="cls-2" d="M744 1713 c50 -2 96 -9 103 -15 7 -6 14 -31 15 -57 l1 -46 4 44 c7 70 -11 81 -121 79 l-91 -2 89 -3z"/>
 <path class="cls-2" d="M610 1693 c0 -22 38 -33 119 -33 74 0 81 -2 81 -20 0 -19 -7 -20 -105 -20 l-105 0 0 -30 0 -30 118 2 117 2 -112 3 c-104 3 -113 5 -113 23 0 18 9 20 103 22 101 3 102 3 102 28 0 25 -2 25 -93 30 -67 4 -95 9 -102 20 -6 9 -10 10 -10 3z"/>
 <path class="cls-2" d="M2390 1641 c0 -64 -15 -71 -141 -71 -102 0 -109 1 -109 20 0 18 8 20 103 23 l102 3 -107 2 -108 2 0 -30 0 -30 115 0 c135 0 155 10 155 80 0 22 -2 40 -5 40 -3 0 -5 -18 -5 -39z"/>
 <path class="cls-2" d="M123 1443 c119 -3 127 -5 127 -23 0 -17 -7 -20 -50 -20 l-50 0 2 -82 2 -83 3 78 4 77 49 0 c49 0 50 1 50 30 l0 30 -132 -2 -133 -2 128 -3z"/>
 <path class="cls-2" d="M307 1443 c-4 -3 -7 -64 -7 -135 l0 -128 30 0 30 0 0 82 0 83 83 -83 c45 -45 85 -82 88 -82 4 0 -33 38 -80 85 -48 47 -90 85 -94 85 -4 0 -7 -36 -7 -80 0 -73 -2 -80 -20 -80 -19 0 -20 7 -20 125 0 95 3 125 13 125 7 0 48 -36 92 -80 44 -44 83 -80 87 -80 5 0 8 36 8 80 0 73 2 80 20 80 18 0 20 -8 23 -127 l3 -128 2 133 2 132 -30 0 -30 0 0 -82 0 -83 -83 83 c-79 79 -96 90 -110 75z"/> <path class="cls-2" d="M600 1420 l0 -30 58 2 57 2 -52 3 c-45 3 -53 7 -53 24 0 18 8 19 125 19 118 0 125 -1 125 -20 0 -17 -7 -20 -50 -20 l-50 0 0 -104 c0 -104 0 -105 -25 -109 -23 -4 -23 -4 2 -3 l28 1 3 103 3 102 49 0 c49 0 50 1 50 30 l0 30 -135 0 -135 0 0 -30z"/>
 <path class="cls-2" d="M1003 1443 c31 -2 83 -2 115 0 31 2 5 3 -58 3 -63 0 -89 -1 -57 -3z"/>
 <path class="cls-2" d="M1214 1437 c-2 -7 -3 -67 -2 -133 l3 -119 30 0 c29 0 30 1 31 50 l1 50 -4 -47 c-4 -43 -7 -48 -29 -48 l-24 0 0 125 0 124 113 4 112 3 -113 2 c-85 1 -114 -1 -118 -11z"/>
 <path class="cls-2" d="M1673 1443 c98 -3 107 -5 107 -23 0 -18 -9 -20 -102 -22 l-103 -3 -1 -75 0 -75 3 72 4 72 102 3 c101 3 102 3 102 28 l0 25 -110 0 -110 1 108 -3z"/>
 <path class="cls-2" d="M1883 1443 c31 -2 83 -2 115 0 31 2 5 3 -58 3 -63 0 -89 -1 -57 -3z"/>
 <path class="cls-2" d="M2268 1441 c76 -5 105 -10 112 -21 5 -8 10 -63 10 -122 0 -106 0 -107 -25 -111 -23 -4 -23 -4 2 -3 l28 1 3 112 c4 150 0 154 -135 151 l-98 -2 103 -5z"/>
 <path class="cls-2" d="M2457 1432 c-32 -35 -18 -143 18 -142 5 0 2 5 -7 11 -21 12 -26 107 -6 127 8 8 49 12 120 12 101 0 108 -1 108 -20 0 -19 -7 -20 -100 -20 l-100 0 0 -30 0 -30 81 0 c108 0 119 -7 119 -73 0 -29 -6 -59 -12 -67 -11 -12 -10 -12 5 -1 12 10 17 28 17 67 0 71 -18 84 -122 84 -71 0 -78 2 -78 20 0 19 7 20 100 20 l100 0 0 30 0 30 -113 0 c-98 0 -116 -3 -130 -18z"/>
 <path class="cls-2" d="M2740 1420 c0 -29 1 -30 50 -30 l49 0 4 -77 3 -78 2 83 2 82 -50 0 c-43 0 -50 3 -50 20 0 18 8 20 128 23 l127 3 -132 2 -133 2 0 -30z"/>
 <path class="cls-2" d="M922 1428 c-8 -8 -12 -48 -12 -114 0 -134 1 -135 155 -132 l110 2 -115 5 c-63 3 -121 10 -127 14 -17 11 -18 208 -1 225 7 7 10 12 7 12 -3 0 -10 -5 -17 -12z"/>
 <path class="cls-2" d="M1458 1430 c13 -15 16 -98 4 -116 -4 -6 -14 -14 -22 -17 -12 -4 -12 -6 2 -6 24 -1 38 29 38 82 0 31 -5 49 -17 58 -15 11 -16 11 -5 -1z"/>
 <path class="cls-2" d="M1531 1426 c-8 -9 -11 -48 -8 -112 l3 -99 2 101 c1 62 7 105 14 112 7 7 9 12 6 12 -3 0 -11 -6 -17 -14z"/>
 <path class="cls-2" d="M2067 1430 c6 -9 13 -38 16 -65 l3 -50 2 51 c2 39 -2 55 -15 65 -16 12 -17 12 -6 -1z"/>
 <path class="cls-2" d="M2140 1420 c-6 -12 -9 -65 -8 -127 l3 -108 28 -3 c27 -3 27 -3 25 55 l-2 58 -3 -52 c-3 -45 -7 -53 -24 -53 -18 0 -19 8 -19 106 0 58 5 114 10 125 6 10 8 19 6 19 -3 0 -10 -9 -16 -20z"/>
 <path class="cls-2" d="M1825 1308 l0 -123 30 0 c29 0 30 1 31 50 l1 50 -4 -47 c-4 -43 -7 -48 -28 -48 -24 0 -24 1 -28 120 l-3 120 1 -122z"/> <path class="cls-2" d="M42 1393 l47 -4 4 -77 3 -77 2 83 2 82 -52 -2 -53 -2 47 -3z"/>
 <path class="cls-2" d="M960 1370 l0 -30 108 2 107 2 -102 3 c-94 3 -103 5 -103 23 0 18 9 20 103 23 l102 3 -107 2 -108 2 0 -30z"/>
 <path class="cls-2" d="M1270 1370 l0 -30 81 0 80 0 -3 28 c-3 27 -4 27 -80 30 l-78 3 0 -31z m150 0 c0 -18 -7 -20 -70 -20 -63 0 -70 2 -70 20 0 18 7 20 70 20 63 0 70 -2 70 -20z"/>
 <path class="cls-2" d="M1880 1370 l0 -30 81 0 80 0 -3 28 c-3 27 -4 27 -80 30 l-78 3 0 -31z m150 0 c0 -18 -7 -20 -70 -20 -63 0 -70 2 -70 20 0 18 7 20 70 20 63 0 70 -2 70 -20z"/>
 <path class="cls-2" d="M2187 1393 c-4 -3 -7 -17 -7 -30 0 -22 2 -23 83 -21 l82 2 -77 3 c-69 3 -78 6 -78 23 0 17 9 20 78 23 l77 3 -76 2 c-42 1 -79 -1 -82 -5z"/>
 <path class="cls-2" d="M2902 1318 l2 -83 3 77 4 77 47 4 47 3 -52 2 -53 2 2 -82z"/>
 <path class="cls-2" d="M1624 1336 c-3 -8 -4 -23 -1 -33 3 -12 5 -8 6 10 1 27 1 27 76 27 l75 0 0 -53 c0 -31 -7 -63 -16 -77 l-16 -25 22 24 c17 20 20 35 18 80 l-3 56 -78 3 c-61 2 -78 0 -83 -12z"/>
 <path class="cls-2" d="M1048 1283 c23 -2 59 -2 80 0 20 2 1 4 -43 4 -44 0 -61 -2 -37 -4z"/>
 <path class="cls-2" d="M1350 1238 c47 -51 59 -58 92 -58 36 0 38 1 37 33 -2 30 -2 30 -6 5 -4 -24 -9 -28 -36 -28 -24 0 -44 12 -87 53 l-55 52 55 -57z"/>
 <path class="cls-2" d="M1960 1238 c47 -51 59 -58 92 -58 36 0 38 1 37 33 -2 30 -2 30 -6 5 -4 -24 -9 -28 -36 -28 -24 0 -44 12 -87 53 l-55 52 55 -57z"/>
 <path class="cls-2" d="M2237 1283 c18 -2 50 -2 70 0 21 2 7 4 -32 4 -38 0 -55 -2 -38 -4z"/>
 <path class="cls-2" d="M2528 1283 c18 -2 45 -2 60 0 15 2 0 4 -33 4 -33 0 -45 -2 -27 -4z"/>
 <path class="cls-2" d="M251 1218 l-1 -27 -127 -4 -128 -3 128 -2 c135 -2 145 1 134 45 -3 12 -5 9 -6 -9z"/>
 <path class="cls-2" d="M2441 1213 l-1 -33 113 2 112 2 -107 3 -107 4 -4 27 c-4 25 -4 24 -6 -5z"/>
 <path class="cls-2" d="M2744 1210 l1 -25 125 0 125 -1 -122 3 c-117 3 -122 5 -126 26 -3 19 -4 18 -3 -3z"/>
 <path class="cls-2" d="M1544 1196 c15 -12 41 -16 110 -14 l91 2 -95 5 c-52 3 -102 10 -110 14 -8 5 -6 1 4 -7z"/>
 </g> </svg>
